<?xml version="1.0" encoding="UTF-8" standalone="no"?>
<!-- Created with Inkscape (http://www.inkscape.org/) -->

<svg
   width="1400"
   height="600"
   viewBox="0 0 1400 600.00001"
   version="1.1"
   id="svg1"
   inkscape:version="1.3.1 (9b9bdc1480, 2023-11-25, custom)"
   sodipodi:docname="1.svg"
   xmlns:inkscape="http://www.inkscape.org/namespaces/inkscape"
   xmlns:sodipodi="http://sodipodi.sourceforge.net/DTD/sodipodi-0.dtd"
   xmlns="http://www.w3.org/2000/svg"
   xmlns:svg="http://www.w3.org/2000/svg">
  <sodipodi:namedview
     id="namedview1"
     pagecolor="#ffffff"
     bordercolor="#000000"
     borderopacity="0.25"
     inkscape:showpageshadow="2"
     inkscape:pageopacity="0.0"
     inkscape:pagecheckerboard="false"
     inkscape:deskcolor="#d1d1d1"
     inkscape:document-units="px"
     inkscape:zoom="0.75462963"
     inkscape:cx="839.48466"
     inkscape:cy="270.33129"
     inkscape:window-width="1764"
     inkscape:window-height="749"
     inkscape:window-x="150"
     inkscape:window-y="251"
     inkscape:window-maximized="0"
     inkscape:current-layer="g8" />
  <defs
     id="defs1">
    <rect
       x="140.46626"
       y="344.53989"
       width="1604.7607"
       height="602.94476"
       id="rect4" />
    <rect
       x="181.54601"
       y="193.4724"
       width="1568.9816"
       height="757.98773"
       id="rect3" />
    <rect
       x="247.80368"
       y="282.25766"
       width="1455.0184"
       height="646.67487"
       id="rect2" />
    <rect
       x="184.19632"
       y="304.78528"
       width="1510.6749"
       height="642.6994"
       id="rect1" />
  </defs>
  <rect
     style="display:none;opacity:1;fill:#e3f3f8;fill-opacity:0.305882"
     id="rect11"
     width="1872.4418"
     height="867.97546"
     x="-228.59506"
     y="-107.38438" />
  <g
     inkscape:label="Слой 1"
     inkscape:groupmode="layer"
     id="layer1"
     style="display:inline;opacity:1;fill:none"
     transform="translate(-265.69936,-114.01014)">
    <text
       xml:space="preserve"
       style="font-style:normal;font-variant:normal;font-weight:normal;font-stretch:condensed;font-size:42.6667px;font-family:Bahnschrift;-inkscape-font-specification:'Bahnschrift Condensed';text-align:start;writing-mode:lr-tb;direction:ltr;text-anchor:start;fill:#2a7fff;fill-opacity:1"
       x="576.44171"
       y="155.04294"
       id="text8"><tspan
         sodipodi:role="line"
         id="tspan8"
         x="576.44171"
         y="155.04294" /><tspan
         sodipodi:role="line"
         id="tspan9"
         x="576.44171"
         y="208.37631" /></text>
    <g
       id="text5"
       style="font-size:42.6667px;font-family:Bahnschrift;-inkscape-font-specification:Bahnschrift;fill:#000000"
       aria-label="Что такое Metabi"
       transform="translate(-3.7099776,8.7605157)" />
    <g
       id="g8"
       transform="translate(-99.99985,49.999995)">
      <path
         style="font-stretch:condensed;font-size:42.6667px;font-family:Bahnschrift;-inkscape-font-specification:'Bahnschrift Condensed';display:inline;opacity:1;fill:#666666"
         d="m 652.65974,258.45184 h 3.95833 v 30.29169 h -3.95833 z m -3.60417,20.81252 q -1.8125,0 -3.08334,-0.85417 -1.27083,-0.85417 -1.9375,-2.5 -0.66667,-1.64584 -0.66667,-3.95834 v -13.50001 h 3.95834 v 13.52084 q 0,1.72917 0.70833,2.66667 0.72917,0.9375 2.06251,0.9375 1.22916,0 1.89583,-1.04166 0.66667,-1.0625 0.66667,-2.97917 v -1.9375 h 1.33333 v 2.25 q 0,2.33333 -0.58333,4 -0.58334,1.66667 -1.6875,2.54167 -1.10417,0.85417 -2.66667,0.85417 z m 14.56251,-12.14585 h 3.95833 v 21.62502 h -3.95833 z m -3.875,0 h 11.70834 v 3.75001 h -11.70834 z m 19.41668,21.93752 q -1.95834,0 -3.375,-0.72917 -1.39584,-0.75 -2.14584,-2.14583 -0.72917,-1.41667 -0.72917,-3.39584 v -9.875 q 0,-1.95834 0.72917,-3.33334 0.75,-1.39584 2.14584,-2.10417 1.41666,-0.72917 3.375,-0.72917 1.95833,0 3.33333,0.72917 1.39584,0.70833 2.10417,2.10417 0.72917,1.375 0.72917,3.33334 v 9.9375 q 0,1.95834 -0.72917,3.35417 -0.70833,1.39584 -2.10417,2.125 -1.375,0.72917 -3.33333,0.72917 z m -0.0417,-3.85417 q 1.0625,0 1.64584,-0.64583 0.60416,-0.66667 0.60416,-1.875 v -9.60418 q 0,-1.16667 -0.60416,-1.8125 -0.58334,-0.66667 -1.64584,-0.66667 -1.04167,0 -1.64583,0.66667 -0.60417,0.64583 -0.60417,1.8125 v 9.60418 q 0,1.1875 0.58333,1.85416 0.60417,0.66667 1.66667,0.66667 z m 21.58335,-18.08335 h 3.95834 v 21.62502 h -3.95834 z m -3.875,0 h 11.70834 v 3.75001 h -11.70834 z m 24.00001,5.81251 q 0,-1.3125 -0.70833,-2.02084 -0.6875,-0.72916 -1.9375,-0.72916 -1.10417,0 -1.72917,0.72916 -0.60417,0.70834 -0.60417,2.02084 h -3.85416 q 0,-2.95834 1.64583,-4.5625 1.64583,-1.62501 4.64584,-1.62501 2.02083,0 3.45833,0.72917 1.4375,0.72917 2.1875,2.125 0.75,1.375 0.75,3.33334 v 15.81251 h -3.85417 z m -3.9375,16.12501 q -2.66667,0 -4,-1.5 -1.33334,-1.52084 -1.33334,-4.5625 0,-3.64584 1.66667,-5.43751 1.66667,-1.8125 5.02084,-1.8125 h 2.77084 l 0.29166,3.54167 h -3.04167 q -1.45833,0 -2.1875,0.9375 -0.72917,0.91667 -0.72917,2.77084 0,1.27083 0.625,1.89583 0.64584,0.625 1.91667,0.625 1.47917,0 2.20834,-0.8125 0.72916,-0.83333 0.72916,-2.47917 l 0.43751,2 q -0.0208,1.60417 -0.52084,2.68751 -0.47917,1.08333 -1.45833,1.625 -0.95834,0.52083 -2.39584,0.52083 z m 18.52085,-12.60418 3.39583,-9.33334 h 4.06251 l -4.64584,12.22918 z m -6.14584,-9.33334 h 3.95833 v 21.62502 h -3.95833 z m 6.125,12.62501 2.89584,-2.8125 5.33334,11.81251 h -4.20834 z m -4.0625,-3.58333 h 7.29167 v 3.75 h -7.29167 z m 19.58335,12.89584 q -1.95833,0 -3.375,-0.72917 -1.39584,-0.75 -2.14584,-2.14583 -0.72916,-1.41667 -0.72916,-3.39584 v -9.875 q 0,-1.95834 0.72916,-3.33334 0.75,-1.39584 2.14584,-2.10417 1.41667,-0.72917 3.375,-0.72917 1.95834,0 3.33334,0.72917 1.39583,0.70833 2.10417,2.10417 0.72916,1.375 0.72916,3.33334 v 9.9375 q 0,1.95834 -0.72916,3.35417 -0.70834,1.39584 -2.10417,2.125 -1.375,0.72917 -3.33334,0.72917 z m -0.0417,-3.85417 q 1.06251,0 1.64584,-0.64583 0.60417,-0.66667 0.60417,-1.875 v -9.60418 q 0,-1.16667 -0.60417,-1.8125 -0.58333,-0.66667 -1.64584,-0.66667 -1.04166,0 -1.64583,0.66667 -0.60417,0.64583 -0.60417,1.8125 v 9.60418 q 0,1.1875 0.58334,1.85416 0.60416,0.66667 1.66666,0.66667 z m 16.54168,3.85417 q -2.08333,0 -3.5625,-0.83333 -1.45833,-0.85417 -2.25,-2.45834 -0.77083,-1.60417 -0.77083,-3.875 v -7.56251 q 0,-2.39583 0.75,-4.10417 0.77083,-1.70833 2.20833,-2.58333 1.4375,-0.89584 3.45834,-0.89584 2.04167,0 3.5,0.83334 1.45833,0.8125 2.20834,2.39583 0.77083,1.5625 0.77083,3.79167 v 5.70834 h -10.12501 v -3.27084 h 6.33334 v -2.35416 q 0,-1.68751 -0.70833,-2.60417 -0.6875,-0.91667 -1.97917,-0.91667 -1.25,0 -1.9375,0.97917 -0.6875,0.97916 -0.6875,2.79167 v 7.89584 q 0,1.58333 0.72916,2.47916 0.72917,0.875 2.0625,0.875 1.22917,0 1.89584,-0.64583 0.6875,-0.66667 0.6875,-1.875 v -0.14583 h 3.79167 v 0.14583 q 0,2.97917 -1.66667,4.60417 -1.66667,1.625 -4.70834,1.625 z"
         id="path1"
         transform="translate(-3.70998,8.76052)" />
      <path
         style="font-stretch:condensed;font-size:42.6667px;font-family:Bahnschrift;-inkscape-font-specification:'Bahnschrift Condensed';display:inline;opacity:1;fill:#0085cc;fill-opacity:1"
         d="m 802.34734,258.45184 h 3.47917 v 30.29169 h -3.625 v -22.93752 l 0.35417,1.33334 -5.20834,16.64584 h -2.54167 l -5.1875,-16.22918 0.47917,-1.75 v 22.93752 h -3.77084 v -30.29169 h 3.625 l 6.12501,19.02085 z m 14.02085,30.60419 q -2.08333,0 -3.5625,-0.83333 -1.45834,-0.85417 -2.25,-2.45834 -0.77084,-1.60417 -0.77084,-3.875 v -7.56251 q 0,-2.39583 0.75,-4.10417 0.77084,-1.70833 2.20834,-2.58333 1.4375,-0.89584 3.45833,-0.89584 2.04167,0 3.50001,0.83334 1.45833,0.8125 2.20833,2.39583 0.77084,1.5625 0.77084,3.79167 v 5.70834 h -10.12501 v -3.27084 h 6.33334 v -2.35416 q 0,-1.68751 -0.70834,-2.60417 -0.6875,-0.91667 -1.97917,-0.91667 -1.25,0 -1.9375,0.97917 -0.6875,0.97916 -0.6875,2.79167 v 7.89584 q 0,1.58333 0.72917,2.47916 0.72917,0.875 2.0625,0.875 1.22917,0 1.89584,-0.64583 0.6875,-0.66667 0.6875,-1.875 v -0.14583 h 3.79167 v 0.14583 q 0,2.97917 -1.66667,4.60417 -1.66667,1.625 -4.70834,1.625 z m 16.16668,-0.20833 q -2.625,0 -3.85417,-1.4375 -1.22917,-1.43751 -1.22917,-4.29167 v -22.29169 h 3.95834 v 22.29169 q 0,0.9375 0.39583,1.45833 0.41667,0.52083 1.1875,0.52083 h 1.58334 v 3.75001 z m -7.29167,-21.72919 h 9.33334 v 3.75001 h -9.33334 z m 21.83335,5.81251 q 0,-1.3125 -0.70834,-2.02084 -0.6875,-0.72916 -1.9375,-0.72916 -1.10417,0 -1.72917,0.72916 -0.60416,0.70834 -0.60416,2.02084 h -3.85417 q 0,-2.95834 1.64583,-4.5625 1.64584,-1.62501 4.64584,-1.62501 2.02083,0 3.45833,0.72917 1.4375,0.72917 2.18751,2.125 0.75,1.375 0.75,3.33334 v 15.81251 h -3.85417 z m -3.93751,16.12501 q -2.66667,0 -4,-1.5 -1.33333,-1.52084 -1.33333,-4.5625 0,-3.64584 1.66666,-5.43751 1.66667,-1.8125 5.02084,-1.8125 h 2.77084 l 0.29166,3.54167 h -3.04167 q -1.45833,0 -2.1875,0.9375 -0.72916,0.91667 -0.72916,2.77084 0,1.27083 0.625,1.89583 0.64583,0.625 1.91666,0.625 1.47917,0 2.20834,-0.8125 0.72917,-0.83333 0.72917,-2.47917 l 0.4375,2 q -0.0208,1.60417 -0.52084,2.68751 -0.47916,1.08333 -1.45833,1.625 -0.95834,0.52083 -2.39584,0.52083 z m 20.31252,0 q -1.52084,0 -2.66667,-0.97917 -1.125,-0.97916 -1.60417,-2.72917 l 0.29167,-3.35416 q 0,1.08333 0.29166,1.85416 0.3125,0.77084 0.875,1.1875 0.5625,0.39584 1.375,0.39584 1.18751,0 1.85417,-0.91667 0.6875,-0.9375 0.6875,-2.60417 v -8.125 q 0,-1.60417 -0.6875,-2.50001 -0.66666,-0.91666 -1.85417,-0.91666 -0.8125,0 -1.375,0.39583 -0.5625,0.39583 -0.875,1.14583 -0.29166,0.75 -0.29166,1.79167 l -0.4375,-3 q 0.6875,-1.875 1.91666,-2.91667 1.22917,-1.04167 2.70834,-1.04167 1.54167,0 2.625,0.8125 1.10417,0.79167 1.66667,2.33334 0.5625,1.54167 0.5625,3.72917 v 8.43751 q 0,2.22916 -0.60417,3.79166 -0.58333,1.56251 -1.72917,2.39584 -1.125,0.8125 -2.72916,0.8125 z m -7.93751,-30.60419 h 3.95834 v 30.29169 h -3.95834 z m 17.12502,0.27083 h 3.95834 v 3.95834 h -3.95834 z m 0,8.39584 h 3.95834 v 21.62502 h -3.95834 z"
         id="path2"
         transform="translate(-3.70998,8.76052)" />
      <g
         id="text10"
         style="font-stretch:condensed;font-size:42.6667px;font-family:Bahnschrift;-inkscape-font-specification:'Bahnschrift Condensed';white-space:pre;inline-size:885.99;fill:#2a7fff"
         transform="translate(373.95874,153.20224)"
         aria-label="    Сервис по разработке BI аналитики&#10;       с возможностью построения дашбордов своими руками&#10;          с помощью платформы Metabase">
        <path
           style="fill:#666666"
           d="m 315.11462,192.45975 q -2.20834,0 -3.79167,-0.91667 -1.58334,-0.91667 -2.41667,-2.64584 -0.83334,-1.75 -0.83334,-4.1875 V 169.3139 q 0,-2.45834 0.83334,-4.18751 0.83333,-1.75 2.39583,-2.66666 1.58334,-0.91667 3.81251,-0.91667 2.22916,0 3.8125,0.91667 1.58333,0.91666 2.39583,2.66666 0.83334,1.72917 0.83334,4.16667 v 1.29167 h -4.00001 v -1.29167 q 0,-1.22916 -0.35416,-2.10416 -0.35417,-0.87501 -1.04167,-1.33334 -0.6875,-0.45833 -1.64583,-0.45833 -0.95834,0 -1.64584,0.45833 -0.66667,0.45833 -1.04167,1.33334 -0.35416,0.875 -0.35416,2.125 v 15.39584 q 0,1.22917 0.35416,2.10417 0.375,0.875 1.04167,1.33333 0.6875,0.45834 1.64584,0.45834 0.95833,0 1.64583,-0.45834 0.6875,-0.45833 1.04167,-1.33333 0.35416,-0.875 0.35416,-2.10417 v -1.29167 h 4.00001 v 1.29167 q 0,2.4375 -0.83334,4.1875 -0.8125,1.72917 -2.39583,2.64584 -1.58334,0.91667 -3.8125,0.91667 z m 17.16668,0 q -2.08334,0 -3.56251,-0.83334 -1.45833,-0.85416 -2.25,-2.45833 -0.77083,-1.60417 -0.77083,-3.875 v -7.56251 q 0,-2.39584 0.75,-4.10417 0.77083,-1.70833 2.20833,-2.58334 1.4375,-0.89583 3.45834,-0.89583 2.04167,0 3.5,0.83333 1.45834,0.81251 2.20834,2.39584 0.77083,1.5625 0.77083,3.79167 v 5.70834 h -10.12501 v -3.27084 h 6.33334 v -2.35417 q 0,-1.6875 -0.70833,-2.60417 -0.6875,-0.91666 -1.97917,-0.91666 -1.25,0 -1.9375,0.97916 -0.6875,0.97917 -0.6875,2.79167 v 7.89584 q 0,1.58334 0.72916,2.47917 0.72917,0.875 2.06251,0.875 1.22916,0 1.89583,-0.64583 0.6875,-0.66667 0.6875,-1.875 v -0.14584 h 3.79167 v 0.14584 q 0,2.97917 -1.66667,4.60417 -1.66667,1.625 -4.70833,1.625 z m 10.54167,-21.93752 h 3.95834 v 30.41669 h -3.95834 z m 7.95834,21.93752 q -1.54167,0 -2.6875,-0.97917 -1.125,-0.97917 -1.60417,-2.72917 l 0.29167,-3.35417 q 0,1.08334 0.29166,1.85417 0.31251,0.77083 0.87501,1.1875 0.58333,0.39583 1.375,0.39583 1.1875,0 1.85416,-0.91666 0.68751,-0.9375 0.68751,-2.60417 v -8.12501 q 0,-1.60417 -0.68751,-2.5 -0.66666,-0.91667 -1.85416,-0.91667 -0.79167,0 -1.375,0.39584 -0.5625,0.39583 -0.87501,1.14583 -0.29166,0.75 -0.29166,1.79167 l -0.4375,-3 q 0.66666,-1.89584 1.89583,-2.91667 1.22917,-1.04167 2.72917,-1.04167 1.54167,0 2.625,0.8125 1.10417,0.79167 1.66667,2.33334 0.5625,1.54166 0.5625,3.72917 v 8.4375 q 0,2.20834 -0.60417,3.79167 -0.58333,1.5625 -1.70833,2.39584 -1.125,0.8125 -2.72917,0.8125 z m 11.70834,-4.06251 h 4.56251 q 0.75,0 1.14583,-0.45833 0.41667,-0.47917 0.41667,-1.375 v -1.5625 q 0,-1.125 -0.64584,-1.75 -0.64583,-0.625 -1.75,-0.625 h -3.72917 v -3.75001 h 3.72917 q 0.95834,0 1.47917,-0.52083 0.52083,-0.54167 0.52083,-1.5 v -1.1875 q 0,-0.64584 -0.41666,-1.02084 -0.39584,-0.375 -1.125,-0.375 h -4.18751 v -3.75 h 4.75001 q 2.35416,0 3.64583,1.1875 1.29167,1.16667 1.29167,3.3125 v 1.83334 q 0,1.58333 -0.85417,2.625 -0.83333,1.02084 -2.375,1.3125 1.72917,0.29167 2.66667,1.39584 0.95833,1.10416 0.95833,2.875 v 2.125 q 0,2.35417 -1.35416,3.66667 -1.35417,1.29167 -3.83334,1.29167 h -4.89584 z m -2.5,-17.87501 h 3.95834 v 21.62502 h -3.95834 z m 25.12502,21.60418 v -14.66667 l 0.5,0.54166 -6.12501,14.12501 h -3.16667 v -21.60418 h 3.68751 v 14.66668 l -0.5,-0.54167 6.16667,-14.12501 h 3.125 v 21.60418 z m 14.39584,0.33334 q -2.08333,0 -3.54166,-0.75 -1.45834,-0.75 -2.22917,-2.1875 -0.77084,-1.45834 -0.77084,-3.50001 v -9.125 q 0,-2.14584 0.77084,-3.64584 0.77083,-1.52083 2.22917,-2.3125 1.47916,-0.79167 3.54166,-0.79167 2.08334,0 3.56251,0.79167 1.47916,0.79167 2.25,2.33333 0.77083,1.52084 0.77083,3.66667 v 0.70834 h -3.91667 v -0.70834 q 0,-1.47917 -0.6875,-2.29167 -0.6875,-0.8125 -1.91667,-0.8125 -1.25,0 -1.95833,0.8125 -0.6875,0.79167 -0.6875,2.25001 v 9.125 q 0,1.3125 0.6875,2.04167 0.70833,0.70833 1.95833,0.70833 1.22917,0 1.91667,-0.75 0.70834,-0.75 0.70834,-2.08333 v -0.6875 h 3.9375 v 0.6875 q 0,2.0625 -0.79167,3.52084 -0.77083,1.45833 -2.25,2.22916 -1.47917,0.77084 -3.58334,0.77084 z m 27.02086,-21.93752 h 3.95834 v 21.62502 h -3.95834 z m -8.47917,0 h 3.95833 v 21.62502 h -3.95833 z m 2.35417,0 h 8.375 v 3.75 h -8.375 z m 20.50001,21.93752 q -1.95834,0 -3.375,-0.72917 -1.39584,-0.75 -2.14584,-2.14583 -0.72917,-1.41667 -0.72917,-3.39584 v -9.87501 q 0,-1.95833 0.72917,-3.33333 0.75,-1.39584 2.14584,-2.10417 1.41666,-0.72917 3.375,-0.72917 1.95833,0 3.33333,0.72917 1.39584,0.70833 2.10417,2.10417 0.72917,1.375 0.72917,3.33333 v 9.93751 q 0,1.95833 -0.72917,3.35417 -0.70833,1.39583 -2.10417,2.125 -1.375,0.72917 -3.33333,0.72917 z m -0.0417,-3.85417 q 1.0625,0 1.64584,-0.64584 0.60416,-0.66666 0.60416,-1.875 v -9.60417 q 0,-1.16667 -0.60416,-1.8125 -0.58334,-0.66667 -1.64584,-0.66667 -1.04167,0 -1.64583,0.66667 -0.60417,0.64583 -0.60417,1.8125 v 9.60417 q 0,1.1875 0.58333,1.85417 0.60417,0.66667 1.66667,0.66667 z m 18.95835,-18.08335 h 3.95833 v 30.41669 h -3.95833 z m 7.95833,21.93752 q -1.54166,0 -2.6875,-0.97917 -1.125,-0.97917 -1.60416,-2.72917 l 0.29166,-3.35417 q 0,1.08334 0.29167,1.85417 0.3125,0.77083 0.875,1.1875 0.58333,0.39583 1.375,0.39583 1.1875,0 1.85417,-0.91666 0.6875,-0.9375 0.6875,-2.60417 v -8.12501 q 0,-1.60417 -0.6875,-2.5 -0.66667,-0.91667 -1.85417,-0.91667 -0.79167,0 -1.375,0.39584 -0.5625,0.39583 -0.875,1.14583 -0.29167,0.75 -0.29167,1.79167 l -0.4375,-3 q 0.66667,-1.89584 1.89584,-2.91667 1.22916,-1.04167 2.72917,-1.04167 1.54166,0 2.625,0.8125 1.10416,0.79167 1.66666,2.33334 0.56251,1.54166 0.56251,3.72917 v 8.4375 q 0,2.20834 -0.60417,3.79167 -0.58334,1.5625 -1.70834,2.39584 -1.125,0.8125 -2.72917,0.8125 z m 18.16669,-16.12501 q 0,-1.31251 -0.70833,-2.02084 -0.6875,-0.72917 -1.9375,-0.72917 -1.10417,0 -1.72917,0.72917 -0.60417,0.70833 -0.60417,2.02084 h -3.85417 q 0,-2.95834 1.64584,-4.56251 1.64583,-1.625 4.64583,-1.625 2.02084,0 3.45834,0.72917 1.4375,0.72917 2.1875,2.125 0.75,1.375 0.75,3.33334 v 15.81251 h -3.85417 z m -3.9375,16.12501 q -2.66667,0 -4,-1.5 -1.33334,-1.52084 -1.33334,-4.56251 0,-3.64583 1.66667,-5.4375 1.66667,-1.8125 5.02084,-1.8125 h 2.77083 l 0.29167,3.54167 h -3.04167 q -1.45833,0 -2.1875,0.9375 -0.72917,0.91666 -0.72917,2.77083 0,1.27084 0.625,1.89584 0.64584,0.625 1.91667,0.625 1.47917,0 2.20834,-0.8125 0.72916,-0.83334 0.72916,-2.47917 l 0.4375,2 q -0.0208,1.60417 -0.52083,2.6875 -0.47917,1.08334 -1.45834,1.625 -0.95833,0.52084 -2.39583,0.52084 z m 16.85418,0 q -1.89584,0 -3.22917,-0.58334 -1.3125,-0.60416 -2.02084,-1.72916 -0.6875,-1.12501 -0.6875,-2.72917 v -2 h 3.75 v 1.375 q 0,0.95833 0.56251,1.5 0.58333,0.52083 1.625,0.52083 1.02083,0 1.58333,-0.60417 0.58333,-0.625 0.58333,-1.70833 v -2.3125 q 0,-0.83334 -0.54166,-1.29167 -0.54167,-0.45833 -1.5,-0.45833 h -2.54167 v -3.47917 h 2.54167 q 0.72916,0 1.125,-0.33334 0.41666,-0.33333 0.41666,-0.95833 v -2.08334 q 0,-0.85416 -0.52083,-1.3125 -0.5,-0.47916 -1.41667,-0.47916 -0.91666,0 -1.41667,0.47916 -0.5,0.47917 -0.5,1.33334 v 1.16667 h -3.75 v -1.58334 q 0,-2.39583 1.47917,-3.70833 1.47917,-1.33334 4.1875,-1.33334 2.70834,0 4.18751,1.33334 1.5,1.3125 1.5,3.72916 v 2.70834 q 0,0.875 -0.4375,1.58333 -0.4375,0.68751 -1.5625,1.14584 1.3125,0.41667 1.89583,1.16667 0.60417,0.72916 0.60417,1.95833 v 3.16667 q 0,2.625 -1.54167,4.08334 -1.54167,1.4375 -4.375,1.4375 z m 9.5625,-21.93752 h 3.95833 v 30.41669 h -3.95833 z m 7.95834,21.93752 q -1.54167,0 -2.6875,-0.97917 -1.12501,-0.97917 -1.60417,-2.72917 l 0.29166,-3.35417 q 0,1.08334 0.29167,1.85417 0.3125,0.77083 0.875,1.1875 0.58334,0.39583 1.375,0.39583 1.1875,0 1.85417,-0.91666 0.6875,-0.9375 0.6875,-2.60417 v -8.12501 q 0,-1.60417 -0.6875,-2.5 -0.66667,-0.91667 -1.85417,-0.91667 -0.79166,0 -1.375,0.39584 -0.5625,0.39583 -0.875,1.14583 -0.29167,0.75 -0.29167,1.79167 l -0.4375,-3 q 0.66667,-1.89584 1.89584,-2.91667 1.22917,-1.04167 2.72917,-1.04167 1.54167,0 2.625,0.8125 1.10417,0.79167 1.66667,2.33334 0.5625,1.54166 0.5625,3.72917 v 8.4375 q 0,2.20834 -0.60417,3.79167 -0.58333,1.5625 -1.70833,2.39584 -1.125,0.8125 -2.72917,0.8125 z m 18.16668,-16.12501 q 0,-1.31251 -0.70833,-2.02084 -0.6875,-0.72917 -1.9375,-0.72917 -1.10417,0 -1.72917,0.72917 -0.60417,0.70833 -0.60417,2.02084 h -3.85416 q 0,-2.95834 1.64583,-4.56251 1.64583,-1.625 4.64584,-1.625 2.02083,0 3.45833,0.72917 1.4375,0.72917 2.1875,2.125 0.75,1.375 0.75,3.33334 v 15.81251 h -3.85417 z m -3.9375,16.12501 q -2.66667,0 -4,-1.5 -1.33334,-1.52084 -1.33334,-4.56251 0,-3.64583 1.66667,-5.4375 1.66667,-1.8125 5.02084,-1.8125 h 2.77084 l 0.29166,3.54167 h -3.04167 q -1.45833,0 -2.1875,0.9375 -0.72917,0.91666 -0.72917,2.77083 0,1.27084 0.625,1.89584 0.64584,0.625 1.91667,0.625 1.47917,0 2.20834,-0.8125 0.72916,-0.83334 0.72916,-2.47917 l 0.43751,2 q -0.0208,1.60417 -0.52084,2.6875 -0.47917,1.08334 -1.45833,1.625 -0.95834,0.52084 -2.39584,0.52084 z m 18.58335,0 q -1.95834,0 -3.35417,-0.72917 -1.39584,-0.75 -2.125,-2.14583 -0.72917,-1.41667 -0.72917,-3.39584 v -8.97917 l 2.77083,-2.77084 q 0.8125,-1.6875 1.97917,-2.5625 1.1875,-0.89584 2.70834,-0.89584 1.5625,0 2.66667,0.72917 1.125,0.70834 1.70833,2.10417 0.58333,1.375 0.58333,3.33334 v 9.10417 q 0,1.95833 -0.72916,3.35417 -0.72917,1.39583 -2.125,2.125 -1.39584,0.72917 -3.35417,0.72917 z m -0.0208,-3.85417 q 1.0625,0 1.66667,-0.66667 0.60417,-0.66667 0.60417,-1.85417 v -8.77084 q 0,-1.16666 -0.60417,-1.8125 -0.60417,-0.66667 -1.66667,-0.66667 -1.04166,0 -1.64583,0.66667 -0.58334,0.64584 -0.58334,1.8125 v 8.77084 q 0,1.20834 0.58334,1.875 0.60417,0.64584 1.64583,0.64584 z m -6.1875,-17.14585 q 0,-1.89583 0.60417,-3.22917 0.60416,-1.33333 1.77083,-2.22917 1.1875,-0.89583 2.97917,-1.47916 0.97917,-0.3125 1.60417,-0.6875 0.625,-0.375 0.91666,-0.85417 0.3125,-0.5 0.3125,-1.125 h 3.95834 q 0,1.47917 -0.5,2.52083 -0.5,1.04167 -1.5,1.77084 -0.97917,0.72917 -2.5625,1.29167 -1.25,0.4375 -2.04167,1 -0.79167,0.5625 -1.1875,1.35416 -0.39584,0.79167 -0.39584,1.93751 v 8.875 h -3.95833 z m 22.41668,21.00002 q -1.95834,0 -3.375,-0.72917 -1.39584,-0.75 -2.14584,-2.14583 -0.72916,-1.41667 -0.72916,-3.39584 v -9.87501 q 0,-1.95833 0.72916,-3.33333 0.75,-1.39584 2.14584,-2.10417 1.41666,-0.72917 3.375,-0.72917 1.95833,0 3.33334,0.72917 1.39583,0.70833 2.10416,2.10417 0.72917,1.375 0.72917,3.33333 v 9.93751 q 0,1.95833 -0.72917,3.35417 -0.70833,1.39583 -2.10416,2.125 -1.37501,0.72917 -3.33334,0.72917 z m -0.0417,-3.85417 q 1.0625,0 1.64584,-0.64584 0.60416,-0.66666 0.60416,-1.875 v -9.60417 q 0,-1.16667 -0.60416,-1.8125 -0.58334,-0.66667 -1.64584,-0.66667 -1.04166,0 -1.64583,0.66667 -0.60417,0.64583 -0.60417,1.8125 v 9.60417 q 0,1.1875 0.58334,1.85417 0.60416,0.66667 1.66666,0.66667 z m 11.33333,-18.08335 h 3.95834 v 21.62502 h -3.95834 z m -3.875,0 h 11.70834 v 3.75 h -11.70834 z m 21.18753,9.33334 3.39583,-9.33334 h 4.06251 l -4.64584,12.22918 z m -6.14584,-9.33334 h 3.95834 v 21.62502 h -3.95834 z m 6.125,12.62501 2.89584,-2.8125 5.33334,11.81251 h -4.20834 z m -4.0625,-3.58334 h 7.29167 v 3.75001 h -7.29167 z m 19.91667,12.89585 q -2.08333,0 -3.5625,-0.83334 -1.45834,-0.85416 -2.25,-2.45833 -0.77084,-1.60417 -0.77084,-3.875 v -7.56251 q 0,-2.39584 0.75,-4.10417 0.77084,-1.70833 2.20834,-2.58334 1.4375,-0.89583 3.45833,-0.89583 2.04167,0 3.50001,0.83333 1.45833,0.81251 2.20833,2.39584 0.77083,1.5625 0.77083,3.79167 v 5.70834 h -10.125 v -3.27084 h 6.33334 v -2.35417 q 0,-1.6875 -0.70834,-2.60417 -0.6875,-0.91666 -1.97917,-0.91666 -1.25,0 -1.9375,0.97916 -0.6875,0.97917 -0.6875,2.79167 v 7.89584 q 0,1.58334 0.72917,2.47917 0.72917,0.875 2.0625,0.875 1.22917,0 1.89584,-0.64583 0.6875,-0.66667 0.6875,-1.875 v -0.14584 h 3.79167 v 0.14584 q 0,2.97917 -1.66667,4.60417 -1.66667,1.625 -4.70834,1.625 z"
           id="path3" />
        <path
           style="fill:#666666"
           d="m 631.26067,188.39724 h 4.97917 q 1.33334,0 2.06251,-0.66666 0.75,-0.66667 0.75,-1.89584 v -3.95833 q 0,-1.14584 -0.375,-1.95834 -0.375,-0.8125 -1.0625,-1.22917 -0.66667,-0.4375 -1.58334,-0.4375 h -4.77084 v -3.75 h 4.77084 q 1.25,0 1.9375,-0.85417 0.6875,-0.85416 0.6875,-2.41666 v -3.08334 q 0,-1.20833 -0.6875,-1.875 -0.6875,-0.66667 -1.89583,-0.66667 h -4.81251 v -3.75 h 4.75001 q 2.08333,0 3.5625,0.70833 1.5,0.70834 2.27084,2.08334 0.77083,1.35416 0.77083,3.27083 v 3.20834 q 0,1.41667 -0.45833,2.52083 -0.45834,1.10417 -1.33334,1.8125 -0.85417,0.70834 -2.0625,0.95834 1.33333,0.20833 2.29167,0.9375 0.95833,0.72917 1.45833,1.89583 0.5,1.14584 0.5,2.68751 v 4 q 0,1.97917 -0.75,3.375 -0.75,1.375 -2.20833,2.10417 -1.4375,0.72917 -3.47917,0.72917 h -5.31251 z m -2.5,-26.54168 h 3.95834 v 30.29169 h -3.95834 z m 21.81252,30.29169 h -3.95834 v -30.29169 h 3.95834 z"
           id="path4" />
        <path
           style="fill:#666666"
           d="m 672.44822,176.33474 q 0,-1.31251 -0.70833,-2.02084 -0.6875,-0.72917 -1.93751,-0.72917 -1.10416,0 -1.72916,0.72917 -0.60417,0.70833 -0.60417,2.02084 h -3.85417 q 0,-2.95834 1.64583,-4.56251 1.64584,-1.625 4.64584,-1.625 2.02084,0 3.45834,0.72917 1.4375,0.72917 2.1875,2.125 0.75,1.375 0.75,3.33334 v 15.81251 h -3.85417 z m -3.9375,16.12501 q -2.66667,0 -4.00001,-1.5 -1.33333,-1.52084 -1.33333,-4.56251 0,-3.64583 1.66667,-5.4375 1.66667,-1.8125 5.02083,-1.8125 h 2.77084 l 0.29167,3.54167 h -3.04167 q -1.45834,0 -2.1875,0.9375 -0.72917,0.91666 -0.72917,2.77083 0,1.27084 0.625,1.89584 0.64583,0.625 1.91667,0.625 1.47917,0 2.20833,-0.8125 0.72917,-0.83334 0.72917,-2.47917 l 0.4375,2 q -0.0208,1.60417 -0.52083,2.6875 -0.47917,1.08334 -1.45834,1.625 -0.95833,0.52084 -2.39583,0.52084 z m 20.85418,-21.93752 h 3.95833 v 21.62502 h -3.95833 z m -8.47918,0 h 3.95834 v 21.62502 h -3.95834 z m 2.35417,9.12501 h 8.60418 v 3.75 h -8.60418 z m 23.62502,-3.3125 q 0,-1.31251 -0.70834,-2.02084 -0.6875,-0.72917 -1.9375,-0.72917 -1.10417,0 -1.72917,0.72917 -0.60416,0.70833 -0.60416,2.02084 h -3.85417 q 0,-2.95834 1.64583,-4.56251 1.64584,-1.625 4.64584,-1.625 2.02083,0 3.45833,0.72917 1.43751,0.72917 2.18751,2.125 0.75,1.375 0.75,3.33334 v 15.81251 h -3.85417 z m -3.93751,16.12501 q -2.66666,0 -4,-1.5 -1.33333,-1.52084 -1.33333,-4.56251 0,-3.64583 1.66666,-5.4375 1.66667,-1.8125 5.02084,-1.8125 h 2.77084 l 0.29166,3.54167 h -3.04166 q -1.45834,0 -2.18751,0.9375 -0.72916,0.91666 -0.72916,2.77083 0,1.27084 0.625,1.89584 0.64583,0.625 1.91666,0.625 1.47917,0 2.20834,-0.8125 0.72917,-0.83334 0.72917,-2.47917 l 0.4375,2 q -0.0208,1.60417 -0.52084,2.6875 -0.47916,1.08334 -1.45833,1.625 -0.95833,0.52084 -2.39584,0.52084 z m 10.91668,-3.75001 q 0.9375,0 1.39583,-0.5625 0.45833,-0.5625 0.45833,-1.70833 v -15.91668 h 3.95834 v 16.29168 q 0,1.85417 -0.60417,3.08334 -0.58333,1.20833 -1.79166,1.83333 -1.18751,0.60417 -3.00001,0.60417 h -0.41666 z m 9.77084,-18.18751 h 3.95833 v 21.62502 h -3.95833 z m -5.27084,0 h 7.22917 v 3.75 h -7.22917 z m 22.60419,21.60418 v -14.66667 l 0.5,0.54166 -6.125,14.12501 h -3.16667 v -21.60418 h 3.6875 v 14.66668 l -0.5,-0.54167 6.16667,-14.12501 h 3.125 v 21.60418 z m 9.43749,-21.60418 h 3.95833 v 21.62502 h -3.95833 z m -3.87501,0 h 11.70835 v 3.75 h -11.70835 z m 23.83336,21.60418 v -14.66667 l 0.5,0.54166 -6.125,14.12501 h -3.16667 v -21.60418 h 3.6875 v 14.66668 l -0.5,-0.54167 6.16667,-14.12501 h 3.12501 v 21.60418 z m 14.4167,-12.27084 3.39584,-9.33334 h 4.0625 l -4.64584,12.22918 z m -6.14584,-9.33334 h 3.95834 v 21.62502 h -3.95834 z m 6.12501,12.62501 2.89583,-2.8125 5.33334,11.81251 h -4.20834 z m -4.06251,-3.58334 h 7.29168 v 3.75001 h -7.29168 z m 23.16667,12.56251 v -14.66667 l 0.50001,0.54166 -6.12501,14.12501 h -3.16667 v -21.60418 h 3.6875 v 14.66668 l -0.5,-0.54167 6.16668,-14.12501 h 3.125 v 21.60418 z"
           id="path5" />
        <path
           style="fill:#666666"
           d="m 340.1563,245.79313 q -2.08333,0 -3.54167,-0.75001 -1.45833,-0.75 -2.22917,-2.1875 -0.77083,-1.45833 -0.77083,-3.5 v -9.12501 q 0,-2.14583 0.77083,-3.64583 0.77084,-1.52084 2.22917,-2.3125 1.47917,-0.79167 3.54167,-0.79167 2.08334,0 3.5625,0.79167 1.47917,0.79166 2.25001,2.33333 0.77083,1.52084 0.77083,3.66667 v 0.70833 h -3.91667 v -0.70833 q 0,-1.47917 -0.6875,-2.29167 -0.6875,-0.8125 -1.91667,-0.8125 -1.25,0 -1.95833,0.8125 -0.6875,0.79167 -0.6875,2.25 v 9.12501 q 0,1.3125 0.6875,2.04167 0.70833,0.70833 1.95833,0.70833 1.22917,0 1.91667,-0.75 0.70833,-0.75 0.70833,-2.08333 v -0.6875 h 3.93751 v 0.6875 q 0,2.0625 -0.79167,3.52083 -0.77084,1.45834 -2.25,2.22917 -1.47917,0.77084 -3.58334,0.77084 z m 21.04168,-4.06251 h 4.5625 q 0.75001,0 1.14584,-0.45833 0.41667,-0.47917 0.41667,-1.375 v -1.5625 q 0,-1.125 -0.64584,-1.75 -0.64583,-0.62501 -1.75,-0.62501 h -3.72917 v -3.75 h 3.72917 q 0.95833,0 1.47917,-0.52083 0.52083,-0.54167 0.52083,-1.5 v -1.1875 q 0,-0.64584 -0.41666,-1.02084 -0.39584,-0.375 -1.12501,-0.375 h -4.1875 v -3.75 h 4.75 q 2.35417,0 3.64584,1.1875 1.29167,1.16667 1.29167,3.3125 v 1.83334 q 0,1.58333 -0.85417,2.625 -0.83333,1.02083 -2.375,1.3125 1.72917,0.29167 2.66667,1.39583 0.95833,1.10417 0.95833,2.87501 v 2.125 q 0,2.35417 -1.35417,3.66667 -1.35416,1.29167 -3.83333,1.29167 h -4.89584 z m -2.5,-17.87501 h 3.95834 v 21.62502 h -3.95834 z m 22.16668,21.93752 q -1.95833,0 -3.375,-0.72917 -1.39584,-0.75 -2.14584,-2.14584 -0.72916,-1.41666 -0.72916,-3.39583 v -9.87501 q 0,-1.95833 0.72916,-3.33334 0.75,-1.39583 2.14584,-2.10416 1.41667,-0.72917 3.375,-0.72917 1.95834,0 3.33334,0.72917 1.39583,0.70833 2.10416,2.10416 0.72917,1.37501 0.72917,3.33334 v 9.93751 q 0,1.95833 -0.72917,3.35417 -0.70833,1.39583 -2.10416,2.125 -1.375,0.72917 -3.33334,0.72917 z m -0.0417,-3.85417 q 1.0625,0 1.64584,-0.64584 0.60417,-0.66667 0.60417,-1.875 v -9.60417 q 0,-1.16667 -0.60417,-1.8125 -0.58334,-0.66667 -1.64584,-0.66667 -1.04166,0 -1.64583,0.66667 -0.60417,0.64583 -0.60417,1.8125 v 9.60417 q 0,1.1875 0.58334,1.85417 0.60416,0.66667 1.66666,0.66667 z m 14.85419,3.85417 q -1.89583,0 -3.22917,-0.58334 -1.3125,-0.60417 -2.02083,-1.72917 -0.6875,-1.125 -0.6875,-2.72917 v -2 h 3.75 v 1.375 q 0,0.95834 0.5625,1.50001 0.58333,0.52083 1.625,0.52083 1.02083,0 1.58333,-0.60417 0.58334,-0.625 0.58334,-1.70833 v -2.3125 q 0,-0.83334 -0.54167,-1.29167 -0.54167,-0.45834 -1.5,-0.45834 h -2.54167 v -3.47916 h 2.54167 q 0.72917,0 1.125,-0.33334 0.41667,-0.33333 0.41667,-0.95833 v -2.08334 q 0,-0.85416 -0.52084,-1.3125 -0.5,-0.47917 -1.41666,-0.47917 -0.91667,0 -1.41667,0.47917 -0.5,0.47917 -0.5,1.33334 v 1.16666 h -3.75 v -1.58333 q 0,-2.39584 1.47916,-3.70834 1.47917,-1.33333 4.18751,-1.33333 2.70833,0 4.1875,1.33333 1.5,1.3125 1.5,3.72917 v 2.70834 q 0,0.875 -0.4375,1.58333 -0.4375,0.6875 -1.5625,1.14584 1.3125,0.41666 1.89583,1.16666 0.60417,0.72917 0.60417,1.95834 v 3.16667 q 0,2.625 -1.54167,4.08333 -1.54166,1.43751 -4.375,1.43751 z m 19.95834,-21.93752 h 3.81251 v 21.62502 h -3.54167 v -15.33335 l 0.35416,0.91667 -2.64583,8.625 h -2.54167 l -2.77084,-8.20834 0.47917,-1.33333 v 15.33335 h -3.54167 v -21.62502 h 3.8125 l 3.29167,11.18751 z m 14.22919,21.93752 q -1.95834,0 -3.37501,-0.72917 -1.39583,-0.75 -2.14583,-2.14584 -0.72917,-1.41666 -0.72917,-3.39583 v -9.87501 q 0,-1.95833 0.72917,-3.33334 0.75,-1.39583 2.14583,-2.10416 1.41667,-0.72917 3.37501,-0.72917 1.95833,0 3.33333,0.72917 1.39584,0.70833 2.10417,2.10416 0.72917,1.37501 0.72917,3.33334 v 9.93751 q 0,1.95833 -0.72917,3.35417 -0.70833,1.39583 -2.10417,2.125 -1.375,0.72917 -3.33333,0.72917 z m -0.0417,-3.85417 q 1.0625,0 1.64583,-0.64584 0.60417,-0.66667 0.60417,-1.875 v -9.60417 q 0,-1.16667 -0.60417,-1.8125 -0.58333,-0.66667 -1.64583,-0.66667 -1.04167,0 -1.64583,0.66667 -0.60417,0.64583 -0.60417,1.8125 v 9.60417 q 0,1.1875 0.58333,1.85417 0.60417,0.66667 1.66667,0.66667 z m 22.14584,-5.45834 2.89584,-2.8125 6.16667,11.81251 h -4.20834 z m -8.72917,-2.8125 2.89584,2.8125 -4.85417,9.00001 h -4.20834 z m -5.41667,-9.81251 h 4.0625 l 4.22917,9.33334 -2.8125,2.89583 z m 9.25001,0 h 3.95833 v 21.62502 h -3.95833 z m -3.35417,9.04167 h 11.47917 v 3.75001 h -11.47917 z m 8.27084,0.29167 4.22917,-9.33334 h 4.0625 l -5.47917,12.22917 z m 19.60418,-9.33334 h 3.95834 v 21.62502 h -3.95834 z m -8.47917,0 h 3.95833 v 21.62502 h -3.95833 z m 2.35417,9.12501 h 8.60417 v 3.75 h -8.60417 z m 20.50001,12.81251 q -1.95834,0 -3.375,-0.72917 -1.39584,-0.75 -2.14584,-2.14584 -0.72917,-1.41666 -0.72917,-3.39583 v -9.87501 q 0,-1.95833 0.72917,-3.33334 0.75,-1.39583 2.14584,-2.10416 1.41666,-0.72917 3.375,-0.72917 1.95833,0 3.33333,0.72917 1.39584,0.70833 2.10417,2.10416 0.72917,1.37501 0.72917,3.33334 v 9.93751 q 0,1.95833 -0.72917,3.35417 -0.70833,1.39583 -2.10417,2.125 -1.375,0.72917 -3.33333,0.72917 z m -0.0417,-3.85417 q 1.0625,0 1.64584,-0.64584 0.60416,-0.66667 0.60416,-1.875 v -9.60417 q 0,-1.16667 -0.60416,-1.8125 -0.58334,-0.66667 -1.64584,-0.66667 -1.04167,0 -1.64583,0.66667 -0.60417,0.64583 -0.60417,1.8125 v 9.60417 q 0,1.1875 0.58333,1.85417 0.60417,0.66667 1.66667,0.66667 z m 16.50002,3.85417 q -2.08333,0 -3.54167,-0.75001 -1.45833,-0.75 -2.22917,-2.1875 -0.77083,-1.45833 -0.77083,-3.5 v -9.12501 q 0,-2.14583 0.77083,-3.64583 0.77084,-1.52084 2.22917,-2.3125 1.47917,-0.79167 3.54167,-0.79167 2.08334,0 3.56251,0.79167 1.47916,0.79166 2.25,2.33333 0.77083,1.52084 0.77083,3.66667 v 0.70833 h -3.91667 v -0.70833 q 0,-1.47917 -0.6875,-2.29167 -0.6875,-0.8125 -1.91667,-0.8125 -1.25,0 -1.95833,0.8125 -0.6875,0.79167 -0.6875,2.25 v 9.12501 q 0,1.3125 0.6875,2.04167 0.70833,0.70833 1.95833,0.70833 1.22917,0 1.91667,-0.75 0.70833,-0.75 0.70833,-2.08333 v -0.6875 h 3.93751 v 0.6875 q 0,2.0625 -0.79167,3.52083 -0.77083,1.45834 -2.25,2.22917 -1.47917,0.77084 -3.58334,0.77084 z m 10.91667,-21.93752 h 3.95834 v 21.62502 h -3.95834 z m -3.875,0 h 11.70834 v 3.75 h -11.70834 z m 17.10417,17.87501 h 4.47917 q 1.14584,0 1.77084,-0.66666 0.625,-0.66667 0.625,-1.87501 v -1.625 q 0,-0.8125 -0.29167,-1.375 -0.27083,-0.58333 -0.8125,-0.875 -0.54167,-0.3125 -1.29167,-0.3125 h -4.47917 v -3.75 h 5.16667 q 1.79167,0 3.06251,0.6875 1.27083,0.66667 1.9375,1.95833 0.66666,1.29167 0.66666,3.12501 v 2.70833 q 0,1.8125 -0.70833,3.10417 -0.70833,1.29167 -2.08333,1.97917 -1.37501,0.66667 -3.29167,0.66667 h -4.75001 z m -2.0625,-17.87501 h 3.95834 v 21.62502 h -3.95834 z m 19.10419,9.12501 h 6.10417 v 3.75 h -6.10417 z m -2.60417,-9.12501 h 3.95834 v 21.62502 h -3.95834 z m 13.29168,21.93752 q -1.95834,0 -3.375,-0.72917 -1.39584,-0.75 -2.14584,-2.14584 -0.72917,-1.41666 -0.72917,-3.39583 v -9.87501 q 0,-1.95833 0.72917,-3.33334 0.75,-1.39583 2.14584,-2.10416 1.41666,-0.72917 3.375,-0.72917 1.95833,0 3.33333,0.72917 1.39584,0.70833 2.10417,2.10416 0.72917,1.37501 0.72917,3.33334 v 9.93751 q 0,1.95833 -0.72917,3.35417 -0.70833,1.39583 -2.10417,2.125 -1.375,0.72917 -3.33333,0.72917 z m -0.0417,-3.85417 q 1.0625,0 1.64584,-0.64584 0.60416,-0.66667 0.60416,-1.875 v -9.60417 q 0,-1.16667 -0.60416,-1.8125 -0.58334,-0.66667 -1.64584,-0.66667 -1.04167,0 -1.64583,0.66667 -0.60417,0.64583 -0.60417,1.8125 v 9.60417 q 0,1.1875 0.58333,1.85417 0.60417,0.66667 1.66667,0.66667 z m 27.43752,-18.08335 h 3.95833 v 21.62502 h -3.95833 z m -8.47917,0 h 3.95833 v 21.62502 h -3.95833 z m 2.35416,0 h 8.37501 v 3.75 h -8.37501 z m 20.50002,21.93752 q -1.95834,0 -3.37501,-0.72917 -1.39583,-0.75 -2.14583,-2.14584 -0.72917,-1.41666 -0.72917,-3.39583 v -9.87501 q 0,-1.95833 0.72917,-3.33334 0.75,-1.39583 2.14583,-2.10416 1.41667,-0.72917 3.37501,-0.72917 1.95833,0 3.33333,0.72917 1.39584,0.70833 2.10417,2.10416 0.72917,1.37501 0.72917,3.33334 v 9.93751 q 0,1.95833 -0.72917,3.35417 -0.70833,1.39583 -2.10417,2.125 -1.375,0.72917 -3.33333,0.72917 z m -0.0417,-3.85417 q 1.0625,0 1.64583,-0.64584 0.60417,-0.66667 0.60417,-1.875 v -9.60417 q 0,-1.16667 -0.60417,-1.8125 -0.58333,-0.66667 -1.64583,-0.66667 -1.04167,0 -1.64583,0.66667 -0.60417,0.64583 -0.60417,1.8125 v 9.60417 q 0,1.1875 0.58333,1.85417 0.60417,0.66667 1.66667,0.66667 z m 16.50002,3.85417 q -2.08333,0 -3.54167,-0.75001 -1.45833,-0.75 -2.22917,-2.1875 -0.77083,-1.45833 -0.77083,-3.5 v -9.12501 q 0,-2.14583 0.77083,-3.64583 0.77084,-1.52084 2.22917,-2.3125 1.47917,-0.79167 3.54167,-0.79167 2.08334,0 3.5625,0.79167 1.47917,0.79166 2.25,2.33333 0.77084,1.52084 0.77084,3.66667 v 0.70833 h -3.91667 v -0.70833 q 0,-1.47917 -0.6875,-2.29167 -0.6875,-0.8125 -1.91667,-0.8125 -1.25,0 -1.95833,0.8125 -0.6875,0.79167 -0.6875,2.25 v 9.12501 q 0,1.3125 0.6875,2.04167 0.70833,0.70833 1.95833,0.70833 1.22917,0 1.91667,-0.75 0.70833,-0.75 0.70833,-2.08333 v -0.6875 h 3.93751 v 0.6875 q 0,2.0625 -0.79167,3.52083 -0.77084,1.45834 -2.25,2.22917 -1.47917,0.77084 -3.58334,0.77084 z m 10.91668,-21.93752 h 3.95834 v 21.62502 h -3.95834 z m -3.875,0 h 11.70834 v 3.75 h -11.70834 z m 15.04166,0 h 3.95834 v 30.41669 h -3.95834 z m 7.95834,21.93752 q -1.54167,0 -2.6875,-0.97917 -1.125,-0.97917 -1.60417,-2.72917 l 0.29167,-3.35417 q 0,1.08333 0.29166,1.85417 0.3125,0.77083 0.875,1.1875 0.58334,0.39583 1.375,0.39583 1.18751,0 1.85417,-0.91666 0.6875,-0.93751 0.6875,-2.60417 v -8.12501 q 0,-1.60417 -0.6875,-2.5 -0.66666,-0.91667 -1.85417,-0.91667 -0.79166,0 -1.375,0.39584 -0.5625,0.39583 -0.875,1.14583 -0.29166,0.75 -0.29166,1.79167 l -0.4375,-3 q 0.66666,-1.89584 1.89583,-2.91667 1.22917,-1.04167 2.72917,-1.04167 1.54167,0 2.625,0.8125 1.10417,0.79167 1.66667,2.33333 0.5625,1.54167 0.5625,3.72917 v 8.43751 q 0,2.20834 -0.60417,3.79167 -0.58333,1.5625 -1.70833,2.39583 -1.125,0.81251 -2.72917,0.81251 z m 15.04168,0 q -1.95833,0 -3.375,-0.72917 -1.39583,-0.75 -2.14583,-2.14584 -0.72917,-1.41666 -0.72917,-3.39583 v -9.87501 q 0,-1.95833 0.72917,-3.33334 0.75,-1.39583 2.14583,-2.10416 1.41667,-0.72917 3.375,-0.72917 1.95834,0 3.33334,0.72917 1.39583,0.70833 2.10417,2.10416 0.72917,1.37501 0.72917,3.33334 v 9.93751 q 0,1.95833 -0.72917,3.35417 -0.70834,1.39583 -2.10417,2.125 -1.375,0.72917 -3.33334,0.72917 z m -0.0417,-3.85417 q 1.0625,0 1.64583,-0.64584 0.60417,-0.66667 0.60417,-1.875 v -9.60417 q 0,-1.16667 -0.60417,-1.8125 -0.58333,-0.66667 -1.64583,-0.66667 -1.04167,0 -1.64584,0.66667 -0.60416,0.64583 -0.60416,1.8125 v 9.60417 q 0,1.1875 0.58333,1.85417 0.60417,0.66667 1.66667,0.66667 z m 16.54168,3.85417 q -2.08333,0 -3.5625,-0.83334 -1.45833,-0.85417 -2.25,-2.45833 -0.77083,-1.60417 -0.77083,-3.87501 v -7.5625 q 0,-2.39584 0.75,-4.10417 0.77083,-1.70834 2.20833,-2.58334 1.4375,-0.89583 3.45834,-0.89583 2.04167,0 3.5,0.83333 1.45834,0.8125 2.20834,2.39584 0.77083,1.5625 0.77083,3.79167 v 5.70833 H 670.3022 v -3.27083 h 6.33334 v -2.35417 q 0,-1.6875 -0.70833,-2.60417 -0.6875,-0.91667 -1.97917,-0.91667 -1.25,0 -1.9375,0.97917 -0.6875,0.97917 -0.6875,2.79167 v 7.89584 q 0,1.58333 0.72916,2.47917 0.72917,0.875 2.0625,0.875 1.22917,0 1.89584,-0.64583 0.6875,-0.66667 0.6875,-1.87501 v -0.14583 h 3.79167 v 0.14583 q 0,2.97917 -1.66667,4.60417 -1.66667,1.62501 -4.70834,1.62501 z m 19.02085,-21.93752 h 3.95834 v 21.62502 h -3.95834 z m -8.47917,0 h 3.95833 v 21.62502 h -3.95833 z m 2.35417,9.12501 h 8.60417 v 3.75 h -8.60417 z m 23.45834,12.47917 v -14.66668 l 0.5,0.54167 -6.125,14.12501 h -3.16667 v -21.60418 h 3.6875 v 14.66668 l -0.5,-0.54167 6.16667,-14.12501 h 3.12501 v 21.60418 z m 13.3125,-6.95834 q -1.79167,0 -3.0625,-0.66666 -1.27084,-0.6875 -1.9375,-1.97917 -0.66667,-1.29167 -0.66667,-3.125 v -3.12501 q 0,-1.8125 0.70833,-3.10417 0.70834,-1.29166 2.08334,-1.95833 1.375,-0.6875 3.29167,-0.6875 h 4.75 v 3.75 h -4.47917 q -1.14583,0 -1.77083,0.66667 -0.625,0.66667 -0.625,1.875 v 2.04167 q 0,0.8125 0.27083,1.39583 0.29167,0.5625 0.83333,0.875 0.54167,0.29167 1.29167,0.29167 h 4.47917 v 3.75 z m 3.27084,6.97918 v -21.62502 h 3.95833 v 21.62502 z m -8.75001,0 3.6875,-9.29168 3.81251,0.95834 -3.29167,8.33334 z m 24.58336,-3.75001 h 0.5 q 0.70834,0 1.20834,-0.52083 0.52083,-0.52084 0.79167,-1.5 0.27083,-1 0.27083,-2.41667 v -13.43751 h 3.95834 v 14.02084 q 0,3.16667 -1.50001,4.77084 -1.5,1.58333 -4.3125,1.58333 h -0.91667 z m -0.58333,0 h 3.95834 v 9.18751 h -3.95834 z m 0,0 h 16.14585 v 3.75001 h -16.14585 z m 14.50001,0 h 3.95834 v 9.18751 h -3.95834 z m -3.22917,-17.87501 h 3.95834 v 21.62502 h -3.95834 z m -5.27084,0 h 7.22918 v 3.75 h -7.22918 z m 24.12503,5.8125 q 0,-1.3125 -0.70834,-2.02083 -0.6875,-0.72917 -1.9375,-0.72917 -1.10416,0 -1.72917,0.72917 -0.60416,0.70833 -0.60416,2.02083 h -3.85417 q 0,-2.95833 1.64583,-4.5625 1.64584,-1.625 4.64584,-1.625 2.02083,0 3.45834,0.72917 1.4375,0.72916 2.1875,2.125 0.75,1.375 0.75,3.33333 v 15.81252 h -3.85417 z m -3.9375,16.12502 q -2.66667,0 -4.00001,-1.50001 -1.33333,-1.52083 -1.33333,-4.5625 0,-3.64584 1.66667,-5.4375 1.66666,-1.8125 5.02083,-1.8125 h 2.77084 l 0.29167,3.54166 h -3.04167 q -1.45834,0 -2.18751,0.93751 -0.72916,0.91666 -0.72916,2.77083 0,1.27084 0.625,1.89584 0.64583,0.625 1.91667,0.625 1.47916,0 2.20833,-0.8125 0.72917,-0.83334 0.72917,-2.47917 l 0.4375,2 q -0.0208,1.60417 -0.52084,2.6875 -0.47916,1.08333 -1.45833,1.625 -0.95833,0.52084 -2.39583,0.52084 z m 14.72917,-3.93751 h 12.08334 v 3.62501 h -12.08334 z m 9.85417,-18.00001 h 3.95834 v 21.62502 h -3.95834 z m -12.20834,0 h 3.95834 v 21.62502 h -3.95834 z m 6.10417,0 h 3.95834 v 21.62502 h -3.95834 z m 20.85417,21.93752 q -1.95834,0 -3.35417,-0.72917 -1.39583,-0.75 -2.125,-2.14584 -0.72917,-1.41666 -0.72917,-3.39583 v -8.97918 l 2.77084,-2.77083 q 0.8125,-1.6875 1.97917,-2.5625 1.1875,-0.89584 2.70833,-0.89584 1.5625,0 2.66667,0.72917 1.125,0.70833 1.70833,2.10417 0.58334,1.375 0.58334,3.33333 v 9.10418 q 0,1.95833 -0.72917,3.35417 -0.72917,1.39583 -2.125,2.125 -1.39584,0.72917 -3.35417,0.72917 z m -0.0208,-3.85417 q 1.0625,0 1.66666,-0.66667 0.60417,-0.66667 0.60417,-1.85417 v -8.77084 q 0,-1.16667 -0.60417,-1.8125 -0.60416,-0.66667 -1.66666,-0.66667 -1.04167,0 -1.64584,0.66667 -0.58333,0.64583 -0.58333,1.8125 v 8.77084 q 0,1.20833 0.58333,1.875 0.60417,0.64584 1.64584,0.64584 z m -6.18751,-17.14585 q 0,-1.89584 0.60417,-3.22917 0.60417,-1.33333 1.77083,-2.22917 1.1875,-0.89583 2.97917,-1.47917 0.97917,-0.3125 1.60417,-0.6875 0.625,-0.375 0.91667,-0.85416 0.3125,-0.5 0.3125,-1.125 h 3.95833 q 0,1.47916 -0.5,2.52083 -0.5,1.04167 -1.5,1.77084 -0.97916,0.72916 -2.5625,1.29166 -1.25,0.4375 -2.04167,1 -0.79166,0.5625 -1.1875,1.35417 -0.39583,0.79167 -0.39583,1.9375 v 8.87501 h -3.95834 z m 22.41671,21.00002 q -1.95833,0 -3.375,-0.72917 -1.39583,-0.75 -2.14583,-2.14584 -0.72917,-1.41666 -0.72917,-3.39583 v -9.87501 q 0,-1.95833 0.72917,-3.33334 0.75,-1.39583 2.14583,-2.10416 1.41667,-0.72917 3.375,-0.72917 1.95834,0 3.33334,0.72917 1.39583,0.70833 2.10417,2.10416 0.72916,1.37501 0.72916,3.33334 v 9.93751 q 0,1.95833 -0.72916,3.35417 -0.70834,1.39583 -2.10417,2.125 -1.375,0.72917 -3.33334,0.72917 z m -0.0417,-3.85417 q 1.0625,0 1.64583,-0.64584 0.60417,-0.66667 0.60417,-1.875 v -9.60417 q 0,-1.16667 -0.60417,-1.8125 -0.58333,-0.66667 -1.64583,-0.66667 -1.04167,0 -1.64584,0.66667 -0.60417,0.64583 -0.60417,1.8125 v 9.60417 q 0,1.1875 0.58334,1.85417 0.60417,0.66667 1.66667,0.66667 z m 10.37501,-18.08335 h 3.95834 v 30.41669 h -3.95834 z m 7.95834,21.93752 q -1.54167,0 -2.6875,-0.97917 -1.125,-0.97917 -1.60417,-2.72917 l 0.29167,-3.35417 q 0,1.08333 0.29167,1.85417 0.3125,0.77083 0.875,1.1875 0.58333,0.39583 1.375,0.39583 1.1875,0 1.85417,-0.91666 0.6875,-0.93751 0.6875,-2.60417 v -8.12501 q 0,-1.60417 -0.6875,-2.5 -0.66667,-0.91667 -1.85417,-0.91667 -0.79167,0 -1.375,0.39584 -0.5625,0.39583 -0.875,1.14583 -0.29167,0.75 -0.29167,1.79167 l -0.4375,-3 q 0.66667,-1.89584 1.89583,-2.91667 1.22917,-1.04167 2.72917,-1.04167 1.54167,0 2.625,0.8125 1.10417,0.79167 1.66667,2.33333 0.5625,1.54167 0.5625,3.72917 v 8.43751 q 0,2.20834 -0.60416,3.79167 -0.58334,1.5625 -1.70834,2.39583 -1.125,0.81251 -2.72917,0.81251 z m 6.875,-4.06251 h 0.5 q 0.70833,0 1.20833,-0.52083 0.52083,-0.52084 0.79167,-1.5 0.27083,-1 0.27083,-2.41667 v -13.43751 h 3.95834 v 14.02084 q 0,3.16667 -1.5,4.77084 -1.50001,1.58333 -4.31251,1.58333 h -0.91666 z m -0.58334,0 h 3.95834 v 9.18751 h -3.95834 z m 0,0 h 16.14585 v 3.75001 h -16.14585 z m 14.50001,0 h 3.95834 v 9.18751 h -3.95834 z m -3.22917,-17.87501 h 3.95834 v 21.62502 h -3.95834 z m -5.27083,0 h 7.22917 v 3.75 h -7.22917 z m 20.37502,21.93752 q -1.95834,0 -3.37501,-0.72917 -1.39583,-0.75 -2.14583,-2.14584 -0.72917,-1.41666 -0.72917,-3.39583 v -9.87501 q 0,-1.95833 0.72917,-3.33334 0.75,-1.39583 2.14583,-2.10416 1.41667,-0.72917 3.37501,-0.72917 1.95833,0 3.33333,0.72917 1.39584,0.70833 2.10417,2.10416 0.72917,1.37501 0.72917,3.33334 v 9.93751 q 0,1.95833 -0.72917,3.35417 -0.70833,1.39583 -2.10417,2.125 -1.375,0.72917 -3.33333,0.72917 z m -0.0417,-3.85417 q 1.0625,0 1.64584,-0.64584 0.60416,-0.66667 0.60416,-1.875 v -9.60417 q 0,-1.16667 -0.60416,-1.8125 -0.58334,-0.66667 -1.64584,-0.66667 -1.04167,0 -1.64583,0.66667 -0.60417,0.64583 -0.60417,1.8125 v 9.60417 q 0,1.1875 0.58333,1.85417 0.60417,0.66667 1.66667,0.66667 z m 12.87502,-0.20834 h 4.5625 q 0.75,0 1.14584,-0.45833 0.41666,-0.47917 0.41666,-1.375 v -1.5625 q 0,-1.125 -0.64583,-1.75 -0.64583,-0.62501 -1.75,-0.62501 h -3.72917 v -3.75 h 3.72917 q 0.95833,0 1.47917,-0.52083 0.52083,-0.54167 0.52083,-1.5 v -1.1875 q 0,-0.64584 -0.41667,-1.02084 -0.39583,-0.375 -1.125,-0.375 h -4.1875 v -3.75 h 4.75 q 2.35417,0 3.64584,1.1875 1.29167,1.16667 1.29167,3.3125 v 1.83334 q 0,1.58333 -0.85417,2.625 -0.83334,1.02083 -2.375,1.3125 1.72916,0.29167 2.66667,1.39583 0.95833,1.10417 0.95833,2.87501 v 2.125 q 0,2.35417 -1.35417,3.66667 -1.35417,1.29167 -3.83333,1.29167 h -4.89584 z m -2.5,-17.87501 h 3.95833 v 21.62502 h -3.95833 z m 31.04163,21.93752 q -2.08334,0 -3.54167,-0.75001 -1.45834,-0.75 -2.22917,-2.1875 -0.77083,-1.45833 -0.77083,-3.5 v -9.12501 q 0,-2.14583 0.77083,-3.64583 0.77083,-1.52084 2.22917,-2.3125 1.47917,-0.79167 3.54167,-0.79167 2.08333,0 3.5625,0.79167 1.47917,0.79166 2.25,2.33333 0.77084,1.52084 0.77084,3.66667 v 0.70833 h -3.91667 v -0.70833 q 0,-1.47917 -0.6875,-2.29167 -0.68751,-0.8125 -1.91667,-0.8125 -1.25,0 -1.95834,0.8125 -0.6875,0.79167 -0.6875,2.25 v 9.12501 q 0,1.3125 0.6875,2.04167 0.70834,0.70833 1.95834,0.70833 1.22916,0 1.91667,-0.75 0.70833,-0.75 0.70833,-2.08333 v -0.6875 h 3.9375 v 0.6875 q 0,2.0625 -0.79167,3.52083 -0.77083,1.45834 -2.25,2.22917 -1.47916,0.77084 -3.58333,0.77084 z m 12.45837,-4.06251 h 4.5625 q 0.75,0 1.14584,-0.45833 0.41666,-0.47917 0.41666,-1.375 v -1.5625 q 0,-1.125 -0.64583,-1.75 -0.64583,-0.62501 -1.75,-0.62501 h -3.72917 v -3.75 h 3.72917 q 0.95833,0 1.47917,-0.52083 0.52083,-0.54167 0.52083,-1.5 v -1.1875 q 0,-0.64584 -0.41667,-1.02084 -0.39583,-0.375 -1.125,-0.375 h -4.1875 v -3.75 h 4.75 q 2.35417,0 3.64584,1.1875 1.29167,1.16667 1.29167,3.3125 v 1.83334 q 0,1.58333 -0.85417,2.625 -0.83334,1.02083 -2.375,1.3125 1.72916,0.29167 2.66667,1.39583 0.95833,1.10417 0.95833,2.87501 v 2.125 q 0,2.35417 -1.35417,3.66667 -1.35417,1.29167 -3.83333,1.29167 h -4.89584 z m -2.5,-17.87501 h 3.95833 v 21.62502 h -3.95833 z m 22.16671,21.93752 q -1.95834,0 -3.375,-0.72917 -1.39584,-0.75 -2.14584,-2.14584 -0.72917,-1.41666 -0.72917,-3.39583 v -9.87501 q 0,-1.95833 0.72917,-3.33334 0.75,-1.39583 2.14584,-2.10416 1.41666,-0.72917 3.375,-0.72917 1.95833,0 3.33333,0.72917 1.39584,0.70833 2.10417,2.10416 0.72917,1.37501 0.72917,3.33334 v 9.93751 q 0,1.95833 -0.72917,3.35417 -0.70833,1.39583 -2.10417,2.125 -1.375,0.72917 -3.33333,0.72917 z m -0.0417,-3.85417 q 1.0625,0 1.64584,-0.64584 0.60416,-0.66667 0.60416,-1.875 v -9.60417 q 0,-1.16667 -0.60416,-1.8125 -0.58334,-0.66667 -1.64584,-0.66667 -1.04167,0 -1.64583,0.66667 -0.60417,0.64583 -0.60417,1.8125 v 9.60417 q 0,1.1875 0.58333,1.85417 0.60417,0.66667 1.66667,0.66667 z m 19.16663,3.52083 v -14.66668 l 0.5,0.54167 -6.125,14.12501 h -3.16667 v -21.60418 h 3.6875 v 14.66668 l -0.5,-0.54167 6.16667,-14.12501 h 3.125 v 21.60418 z m 18.66673,-21.60418 h 3.8125 v 21.62502 h -3.54167 v -15.33335 l 0.35417,0.91667 -2.64584,8.625 h -2.54166 l -2.77084,-8.20834 0.47917,-1.33333 v 15.33335 h -3.54167 v -21.62502 h 3.8125 l 3.29167,11.18751 z m 17.18745,21.60418 v -14.66668 l 0.5,0.54167 -6.12494,14.12501 h -3.16667 v -21.60418 h 3.68751 v 14.66668 l -0.5,-0.54167 6.1666,-14.12501 h 3.125 v 21.60418 z m 16.8542,-21.60418 h 3.9583 v 30.41669 h -3.9583 z m 7.9583,21.93752 q -1.5417,0 -2.6875,-0.97917 -1.125,-0.97917 -1.6042,-2.72917 l 0.2917,-3.35417 q 0,1.08333 0.2917,1.85417 0.3125,0.77083 0.875,1.1875 0.5833,0.39583 1.375,0.39583 1.1875,0 1.8541,-0.91666 0.6875,-0.93751 0.6875,-2.60417 v -8.12501 q 0,-1.60417 -0.6875,-2.5 -0.6666,-0.91667 -1.8541,-0.91667 -0.7917,0 -1.375,0.39584 -0.5625,0.39583 -0.875,1.14583 -0.2917,0.75 -0.2917,1.79167 l -0.4375,-3 q 0.6667,-1.89584 1.8958,-2.91667 1.2292,-1.04167 2.7292,-1.04167 1.5417,0 2.625,0.8125 1.1042,0.79167 1.6667,2.33333 0.5625,1.54167 0.5625,3.72917 v 8.43751 q 0,2.20834 -0.6042,3.79167 -0.5833,1.5625 -1.7083,2.39583 -1.125,0.81251 -2.7292,0.81251 z m 21.6876,-21.93752 -6.5001,26.68752 q -0.3333,1.33333 -1.125,2.20833 -0.7708,0.875 -2.0416,1.3125 -1.2709,0.43751 -3.0417,0.43751 h -0.5833 v -3.75001 h 0.5833 q 1.4583,0 2.2708,-0.625 0.8125,-0.60417 1.0834,-1.875 l 5.3541,-24.39585 z m -14.7709,0 h 4 l 4.6458,18.68751 -2,4.64584 z m 23.625,9.33334 3.3958,-9.33334 h 4.0625 l -4.6458,12.22917 z m -6.1458,-9.33334 h 3.9583 v 21.62502 h -3.9583 z m 6.125,12.62501 2.8958,-2.8125 5.3333,11.81251 h -4.2083 z m -4.0625,-3.58334 h 7.2916 v 3.75001 h -7.2916 z m 23.3333,-3.22917 q 0,-1.3125 -0.7083,-2.02083 -0.6875,-0.72917 -1.9375,-0.72917 -1.1042,0 -1.7292,0.72917 -0.6042,0.70833 -0.6042,2.02083 h -3.8541 q 0,-2.95833 1.6458,-4.5625 1.6458,-1.625 4.6458,-1.625 2.0209,0 3.4584,0.72917 1.4375,0.72916 2.1875,2.125 0.75,1.375 0.75,3.33333 v 15.81252 h -3.8542 z m -3.9375,16.12502 q -2.6667,0 -4,-1.50001 -1.3333,-1.52083 -1.3333,-4.5625 0,-3.64584 1.6666,-5.4375 1.6667,-1.8125 5.0209,-1.8125 h 2.7708 l 0.2917,3.54166 h -3.0417 q -1.4583,0 -2.1875,0.93751 -0.7292,0.91666 -0.7292,2.77083 0,1.27084 0.625,1.89584 0.6459,0.625 1.9167,0.625 1.4792,0 2.2083,-0.8125 0.7292,-0.83334 0.7292,-2.47917 l 0.4375,2 q -0.021,1.60417 -0.5208,2.6875 -0.4792,1.08333 -1.4584,1.625 -0.9583,0.52084 -2.3958,0.52084 z m 22.7709,-21.93752 h 3.8125 v 21.62502 h -3.5417 v -15.33335 l 0.3542,0.91667 -2.6459,8.625 h -2.5416 l -2.7709,-8.20834 0.4792,-1.33333 v 15.33335 h -3.5417 v -21.62502 h 3.8125 l 3.2917,11.18751 z m 17.1875,21.60418 v -14.66668 l 0.5,0.54167 -6.125,14.12501 h -3.1667 v -21.60418 h 3.6875 v 14.66668 l -0.5,-0.54167 6.1667,-14.12501 h 3.125 v 21.60418 z"
           id="path6" />
        <path
           style="fill:#666666"
           d="m 365.90632,299.12651 q -2.08334,0 -3.54167,-0.75 -1.45833,-0.75 -2.22917,-2.1875 -0.77083,-1.45833 -0.77083,-3.5 V 283.564 q 0,-2.14583 0.77083,-3.64583 0.77084,-1.52084 2.22917,-2.3125 1.47917,-0.79167 3.54167,-0.79167 2.08333,0 3.5625,0.79167 1.47917,0.79166 2.25,2.33333 0.77084,1.52083 0.77084,3.66667 v 0.70833 h -3.91667 v -0.70833 q 0,-1.47917 -0.6875,-2.29167 -0.6875,-0.8125 -1.91667,-0.8125 -1.25,0 -1.95833,0.8125 -0.68751,0.79167 -0.68751,2.25 v 9.12501 q 0,1.3125 0.68751,2.04167 0.70833,0.70833 1.95833,0.70833 1.22917,0 1.91667,-0.75 0.70833,-0.75 0.70833,-2.08333 v -0.6875 h 3.9375 v 0.6875 q 0,2.0625 -0.79166,3.52083 -0.77084,1.45834 -2.25,2.22917 -1.47917,0.77083 -3.58334,0.77083 z M 392.92718,277.189 h 3.95833 v 21.62501 h -3.95833 z m -8.47918,0 h 3.95834 v 21.62501 H 384.448 Z m 2.35417,0 h 8.37501 v 3.75 h -8.37501 z m 20.50001,21.93751 q -1.95833,0 -3.375,-0.72916 -1.39583,-0.75 -2.14583,-2.14584 -0.72917,-1.41667 -0.72917,-3.39583 v -9.87501 q 0,-1.95834 0.72917,-3.33334 0.75,-1.39583 2.14583,-2.10416 1.41667,-0.72917 3.375,-0.72917 1.95834,0 3.33334,0.72917 1.39583,0.70833 2.10417,2.10416 0.72916,1.375 0.72916,3.33334 v 9.93751 q 0,1.95833 -0.72916,3.35417 -0.70834,1.39583 -2.10417,2.125 -1.375,0.72916 -3.33334,0.72916 z m -0.0417,-3.85416 q 1.0625,0 1.64583,-0.64584 0.60417,-0.66667 0.60417,-1.875 v -9.60417 q 0,-1.16667 -0.60417,-1.81251 -0.58333,-0.66666 -1.64583,-0.66666 -1.04167,0 -1.64584,0.66666 -0.60416,0.64584 -0.60416,1.81251 v 9.60417 q 0,1.1875 0.58333,1.85417 0.60417,0.66667 1.66667,0.66667 z M 428.03137,277.189 h 3.8125 v 21.62501 h -3.54167 v -15.33334 l 0.35417,0.91667 -2.64584,8.625 h -2.54167 l -2.77083,-8.20834 0.47916,-1.33333 v 15.33334 h -3.54166 V 277.189 h 3.8125 l 3.29167,11.18751 z m 14.22918,21.93751 q -1.95833,0 -3.375,-0.72916 -1.39584,-0.75 -2.14584,-2.14584 -0.72916,-1.41667 -0.72916,-3.39583 v -9.87501 q 0,-1.95834 0.72916,-3.33334 0.75,-1.39583 2.14584,-2.10416 1.41667,-0.72917 3.375,-0.72917 1.95833,0 3.33334,0.72917 1.39583,0.70833 2.10416,2.10416 0.72917,1.375 0.72917,3.33334 v 9.93751 q 0,1.95833 -0.72917,3.35417 -0.70833,1.39583 -2.10416,2.125 -1.37501,0.72916 -3.33334,0.72916 z m -0.0417,-3.85416 q 1.0625,0 1.64584,-0.64584 0.60416,-0.66667 0.60416,-1.875 v -9.60417 q 0,-1.16667 -0.60416,-1.81251 -0.58334,-0.66666 -1.64584,-0.66666 -1.04166,0 -1.64583,0.66666 -0.60417,0.64584 -0.60417,1.81251 v 9.60417 q 0,1.1875 0.58334,1.85417 0.60416,0.66667 1.66666,0.66667 z m 12.72917,-0.20834 h 12.08334 v 3.75 h -12.08334 z m 3.83334,-17.87501 h 3.95833 v 21.62501 h -3.95833 z m -6.18751,0 h 3.95834 v 21.62501 h -3.95834 z m 15.41668,17.87501 h 3.95834 v 9.18751 h -3.95834 z M 464.96889,277.189 h 3.75001 v 21.62501 h -3.75001 z m 11.77084,17.87501 h 4.47917 q 1.14583,0 1.77083,-0.66667 0.625,-0.66666 0.625,-1.875 v -1.625 q 0,-0.8125 -0.29166,-1.375 -0.27084,-0.58333 -0.8125,-0.875 -0.54167,-0.3125 -1.29167,-0.3125 h -4.47917 v -3.75 h 5.16667 q 1.79167,0 3.0625,0.6875 1.27084,0.66666 1.9375,1.95833 0.66667,1.29167 0.66667,3.125 v 2.70834 q 0,1.8125 -0.70833,3.10417 -0.70834,1.29167 -2.08334,1.97917 -1.375,0.66666 -3.29167,0.66666 h -4.75 z m -2.0625,-17.87501 h 3.95833 v 21.62501 h -3.95833 z m 19.10419,9.12501 h 6.10417 v 3.75 h -6.10417 z m -2.60417,-9.12501 h 3.95833 v 21.62501 h -3.95833 z m 13.29167,21.93751 q -1.95833,0 -3.375,-0.72916 -1.39583,-0.75 -2.14583,-2.14584 -0.72917,-1.41667 -0.72917,-3.39583 v -9.87501 q 0,-1.95834 0.72917,-3.33334 0.75,-1.39583 2.14583,-2.10416 1.41667,-0.72917 3.375,-0.72917 1.95834,0 3.33334,0.72917 1.39583,0.70833 2.10417,2.10416 0.72917,1.375 0.72917,3.33334 v 9.93751 q 0,1.95833 -0.72917,3.35417 -0.70834,1.39583 -2.10417,2.125 -1.375,0.72916 -3.33334,0.72916 z m -0.0417,-3.85416 q 1.0625,0 1.64583,-0.64584 0.60417,-0.66667 0.60417,-1.875 v -9.60417 q 0,-1.16667 -0.60417,-1.81251 -0.58333,-0.66666 -1.64583,-0.66666 -1.04167,0 -1.64584,0.66666 -0.60416,0.64584 -0.60416,1.81251 v 9.60417 q 0,1.1875 0.58333,1.85417 0.60417,0.66667 1.66667,0.66667 z M 531.86477,277.189 h 3.95834 v 21.62501 h -3.95834 z m -8.47917,0 h 3.95834 v 21.62501 h -3.95834 z m 2.35417,0 h 8.37501 v 3.75 h -8.37501 z m 13.20834,18.18751 q 0.9375,0 1.39583,-0.5625 0.45834,-0.5625 0.45834,-1.70833 V 277.189 h 3.95833 v 16.29168 q 0,1.85417 -0.60416,3.08333 -0.58334,1.20834 -1.79167,1.83334 -1.1875,0.60416 -3,0.60416 h -0.41667 z m 9.77084,-18.18751 h 3.95834 v 21.62501 h -3.95834 z m -5.27084,0 h 7.22918 v 3.75 h -7.22918 z m 22.77086,5.8125 q 0,-1.3125 -0.70833,-2.02083 -0.6875,-0.72917 -1.9375,-0.72917 -1.10417,0 -1.72917,0.72917 -0.60417,0.70833 -0.60417,2.02083 h -3.85417 q 0,-2.95833 1.64584,-4.5625 1.64583,-1.625 4.64583,-1.625 2.02084,0 3.45834,0.72917 1.4375,0.72916 2.1875,2.125 0.75,1.375 0.75,3.33333 v 15.81251 h -3.85417 z m -3.9375,16.12501 q -2.66667,0 -4,-1.5 -1.33334,-1.52083 -1.33334,-4.5625 0,-3.64584 1.66667,-5.4375 1.66667,-1.81251 5.02084,-1.81251 h 2.77083 l 0.29167,3.54167 h -3.04167 q -1.45833,0 -2.1875,0.9375 -0.72917,0.91667 -0.72917,2.77084 0,1.27083 0.625,1.89583 0.64584,0.62501 1.91667,0.62501 1.47917,0 2.20833,-0.81251 0.72917,-0.83333 0.72917,-2.47916 l 0.4375,2 q -0.0208,1.60417 -0.52083,2.6875 -0.47917,1.08333 -1.45834,1.625 -0.95833,0.52083 -2.39583,0.52083 z M 575.82313,277.189 h 3.95834 v 21.62501 h -3.95834 z m -3.875,0 h 11.70834 v 3.75 h -11.70834 z m 29.12502,21.62501 q -2.27083,0 -3.52083,-1.64583 -1.22917,-1.64583 -1.22917,-4.625 v -9.18751 q 0,-2.95834 1.22917,-4.5625 1.25,-1.60417 3.52083,-1.60417 2.35417,0 3.64584,1.60417 1.3125,1.60416 1.3125,4.5625 v 9.25001 q 0,2.95833 -1.3125,4.58333 -1.29167,1.625 -3.64584,1.625 z m -11,0 q -2.35417,0 -3.66667,-1.625 -1.29167,-1.625 -1.29167,-4.58333 v -9.25001 q 0,-2.95834 1.29167,-4.5625 1.3125,-1.60417 3.66667,-1.60417 2.27083,0 3.5,1.60417 1.25,1.60416 1.25,4.5625 v 9.18751 q 0,2.97917 -1.25,4.625 -1.22917,1.64583 -3.5,1.64583 z m 1.27083,-3.70833 q 1.0625,0 1.64583,-0.64584 0.60417,-0.66666 0.60417,-1.875 v -9.20834 q 0,-1.16666 -0.60417,-1.8125 -0.58333,-0.66667 -1.64583,-0.66667 -1.0625,0 -1.66667,0.66667 -0.60417,0.64584 -0.60417,1.8125 v 9.20834 q 0,1.1875 0.60417,1.85417 0.60417,0.66667 1.66667,0.66667 z m 2.25,-24.18752 h 3.95834 v 34.16669 h -3.95834 z m 6.20834,24.18752 q 1.0625,0 1.66667,-0.66667 0.60416,-0.66667 0.60416,-1.85417 v -9.20834 q 0,-1.16666 -0.60416,-1.8125 -0.60417,-0.66667 -1.66667,-0.66667 -1.0625,0 -1.66667,0.66667 -0.58333,0.64584 -0.58333,1.8125 v 9.20834 q 0,1.20834 0.58333,1.875 0.60417,0.64584 1.66667,0.64584 z m 16.22918,4.02083 q -1.95833,0 -3.375,-0.72916 -1.39584,-0.75 -2.14584,-2.14584 -0.72916,-1.41667 -0.72916,-3.39583 v -9.87501 q 0,-1.95834 0.72916,-3.33334 0.75,-1.39583 2.14584,-2.10416 1.41667,-0.72917 3.375,-0.72917 1.95833,0 3.33334,0.72917 1.39583,0.70833 2.10416,2.10416 0.72917,1.375 0.72917,3.33334 v 9.93751 q 0,1.95833 -0.72917,3.35417 -0.70833,1.39583 -2.10416,2.125 -1.37501,0.72916 -3.33334,0.72916 z m -0.0417,-3.85416 q 1.0625,0 1.64584,-0.64584 0.60417,-0.66667 0.60417,-1.875 v -9.60417 q 0,-1.16667 -0.60417,-1.81251 -0.58334,-0.66666 -1.64584,-0.66666 -1.04166,0 -1.64583,0.66666 -0.60417,0.64584 -0.60417,1.81251 v 9.60417 q 0,1.1875 0.58334,1.85417 0.60416,0.66667 1.66666,0.66667 z M 626.36485,277.189 h 3.95834 v 30.41669 h -3.95834 z m 7.95834,21.93751 q -1.54167,0 -2.6875,-0.97916 -1.125,-0.97917 -1.60417,-2.72917 l 0.29167,-3.35417 q 0,1.08333 0.29166,1.85417 0.3125,0.77083 0.875,1.1875 0.58334,0.39583 1.375,0.39583 1.18751,0 1.85417,-0.91667 0.6875,-0.9375 0.6875,-2.60416 v -8.12501 q 0,-1.60417 -0.6875,-2.5 -0.66666,-0.91667 -1.85417,-0.91667 -0.79166,0 -1.375,0.39583 -0.5625,0.39584 -0.875,1.14584 -0.29166,0.75 -0.29166,1.79167 l -0.4375,-3.00001 q 0.66666,-1.89583 1.89583,-2.91666 1.22917,-1.04167 2.72917,-1.04167 1.54167,0 2.625,0.8125 1.10417,0.79167 1.66667,2.33333 0.5625,1.54167 0.5625,3.72917 v 8.43751 q 0,2.20833 -0.60417,3.79167 -0.58333,1.5625 -1.70833,2.39583 -1.125,0.8125 -2.72917,0.8125 z M 653.92738,277.189 h 3.8125 v 21.62501 h -3.54167 v -15.33334 l 0.35417,0.91667 -2.64584,8.625 h -2.54167 l -2.77083,-8.20834 0.47917,-1.33333 v 15.33334 h -3.54167 V 277.189 h 3.8125 l 3.29167,11.18751 z m 22.39585,0 h 3.95834 v 21.62501 h -3.95834 z m -11.625,17.87501 h 3.64583 q 1.14584,0 1.77084,-0.66667 0.625,-0.66666 0.625,-1.875 v -1.625 q 0,-0.8125 -0.29167,-1.375 -0.27083,-0.58333 -0.8125,-0.875 -0.54167,-0.3125 -1.29167,-0.3125 h -3.64583 v -3.75 h 4.33333 q 1.79167,0 3.0625,0.6875 1.27084,0.66666 1.93751,1.95833 0.66666,1.29167 0.66666,3.125 v 2.70834 q 0,1.8125 -0.70833,3.10417 -0.70833,1.29167 -2.08334,1.97917 -1.375,0.66666 -3.29167,0.66666 h -3.91666 z M 662.32322,277.189 h 3.95834 v 21.62501 h -3.95834 z"
           id="path7" />
        <path
           d="m 709.26074,268.52233 h 3.47916 v 30.29168 h -3.625 V 275.8765 l 0.35417,1.33333 -5.20834,16.64585 h -2.54167 l -5.1875,-16.22918 0.47917,-1.75 v 22.93751 h -3.77084 v -30.29168 h 3.625 l 6.12501,19.02084 z m 14.02084,30.60418 q -2.08333,0 -3.5625,-0.83333 -1.45834,-0.85417 -2.25,-2.45833 -0.77084,-1.60417 -0.77084,-3.87501 v -7.5625 q 0,-2.39584 0.75,-4.10417 0.77084,-1.70834 2.20834,-2.58334 1.4375,-0.89583 3.45834,-0.89583 2.04166,0 3.5,0.83333 1.45833,0.8125 2.20833,2.39584 0.77084,1.5625 0.77084,3.79167 v 5.70833 h -10.12501 v -3.27083 h 6.33334 v -2.35417 q 0,-1.6875 -0.70834,-2.60417 -0.6875,-0.91667 -1.97916,-0.91667 -1.25001,0 -1.93751,0.97917 -0.6875,0.97917 -0.6875,2.79167 v 7.89584 q 0,1.58333 0.72917,2.47917 0.72917,0.875 2.0625,0.875 1.22917,0 1.89584,-0.64584 0.6875,-0.66666 0.6875,-1.875 v -0.14583 h 3.79167 v 0.14583 q 0,2.97917 -1.66667,4.60417 -1.66667,1.625 -4.70834,1.625 z m 16.16668,-0.20833 q -2.625,0 -3.85417,-1.4375 -1.22917,-1.4375 -1.22917,-4.29167 v -22.29168 h 3.95834 v 22.29168 q 0,0.9375 0.39583,1.45833 0.41667,0.52084 1.1875,0.52084 h 1.58334 v 3.75 z M 732.15659,277.189 h 9.33334 v 3.75 h -9.33334 z m 21.83335,5.8125 q 0,-1.3125 -0.70834,-2.02083 -0.6875,-0.72917 -1.9375,-0.72917 -1.10417,0 -1.72917,0.72917 -0.60416,0.70833 -0.60416,2.02083 h -3.85417 q 0,-2.95833 1.64583,-4.5625 1.64584,-1.625 4.64584,-1.625 2.02083,0 3.45833,0.72917 1.43751,0.72916 2.18751,2.125 0.75,1.375 0.75,3.33333 v 15.81251 h -3.85417 z m -3.93751,16.12501 q -2.66666,0 -4,-1.5 -1.33333,-1.52083 -1.33333,-4.5625 0,-3.64584 1.66667,-5.4375 1.66666,-1.81251 5.02083,-1.81251 h 2.77084 l 0.29166,3.54167 h -3.04166 q -1.45834,0 -2.18751,0.9375 -0.72916,0.91667 -0.72916,2.77084 0,1.27083 0.625,1.89583 0.64583,0.62501 1.91667,0.62501 1.47916,0 2.20833,-0.81251 0.72917,-0.83333 0.72917,-2.47916 l 0.4375,2 q -0.0208,1.60417 -0.52084,2.6875 -0.47916,1.08333 -1.45833,1.625 -0.95833,0.52083 -2.39584,0.52083 z m 20.31252,0 q -1.52084,0 -2.66667,-0.97916 -1.125,-0.97917 -1.60417,-2.72917 l 0.29167,-3.35417 q 0,1.08333 0.29166,1.85417 0.3125,0.77083 0.875,1.1875 0.56251,0.39583 1.37501,0.39583 1.1875,0 1.85416,-0.91667 0.6875,-0.9375 0.6875,-2.60416 v -8.12501 q 0,-1.60417 -0.6875,-2.5 -0.66666,-0.91667 -1.85416,-0.91667 -0.8125,0 -1.37501,0.39583 -0.5625,0.39584 -0.875,1.14584 -0.29166,0.75 -0.29166,1.79167 l -0.4375,-3.00001 q 0.6875,-1.875 1.91667,-2.91666 1.22916,-1.04167 2.70833,-1.04167 1.54167,0 2.625,0.8125 1.10417,0.79167 1.66667,2.33333 0.5625,1.54167 0.5625,3.72917 v 8.43751 q 0,2.22917 -0.60417,3.79167 -0.58333,1.5625 -1.72916,2.39583 -1.12501,0.8125 -2.72917,0.8125 z m -7.93751,-30.60418 h 3.95834 v 30.29168 h -3.95834 z m 26.12503,14.47917 q 0,-1.3125 -0.70834,-2.02083 -0.6875,-0.72917 -1.9375,-0.72917 -1.10416,0 -1.72917,0.72917 -0.60416,0.70833 -0.60416,2.02083 h -3.85417 q 0,-2.95833 1.64583,-4.5625 1.64584,-1.625 4.64584,-1.625 2.02083,0 3.45834,0.72917 1.4375,0.72916 2.1875,2.125 0.75,1.375 0.75,3.33333 v 15.81251 h -3.85417 z m -3.9375,16.12501 q -2.66667,0 -4.00001,-1.5 -1.33333,-1.52083 -1.33333,-4.5625 0,-3.64584 1.66667,-5.4375 1.66666,-1.81251 5.02083,-1.81251 h 2.77084 l 0.29167,3.54167 h -3.04167 q -1.45834,0 -2.18751,0.9375 -0.72916,0.91667 -0.72916,2.77084 0,1.27083 0.625,1.89583 0.64583,0.62501 1.91667,0.62501 1.47916,0 2.20833,-0.81251 0.72917,-0.83333 0.72917,-2.47916 l 0.4375,2 q -0.0208,1.60417 -0.52084,2.6875 -0.47916,1.08333 -1.45833,1.625 -0.95833,0.52083 -2.39583,0.52083 z m 17.87501,0 q -2.02084,0 -3.50001,-0.77083 -1.45833,-0.79167 -2.25,-2.25 -0.79167,-1.47917 -0.79167,-3.45834 v -0.16666 h 3.91667 v 0.16666 q 0,1.39584 0.6875,2.1875 0.6875,0.77084 1.93751,0.77084 1.22916,0 1.91666,-0.75 0.70834,-0.75 0.70834,-2.0625 0,-0.875 -0.41667,-1.41667 -0.39583,-0.5625 -1.02083,-0.875 -0.625,-0.33334 -1.77084,-0.75 -0.0833,-0.0208 -0.16666,-0.0417 -0.0625,-0.0208 -0.14584,-0.0625 -0.0625,-0.0208 -0.125,-0.0417 -0.0417,-0.0208 -0.10417,-0.0417 -1.54166,-0.58334 -2.625,-1.25 -1.0625,-0.66667 -1.79167,-1.91667 -0.72916,-1.25 -0.72916,-3.20834 0,-1.95833 0.72916,-3.39583 0.75001,-1.4375 2.12501,-2.20834 1.375,-0.77083 3.25,-0.77083 1.89583,0 3.27083,0.72917 1.37501,0.72916 2.10417,2.10416 0.72917,1.35417 0.72917,3.22917 v 0.125 h -3.91667 v -0.16666 q 0,-1.18751 -0.58333,-1.83334 -0.5625,-0.66667 -1.60417,-0.66667 -1.04167,0 -1.625,0.72917 -0.5625,0.72917 -0.5625,2.04167 0,0.89583 0.39583,1.47917 0.39583,0.5625 1.02083,0.89583 0.64584,0.3125 1.64584,0.64583 0.0417,0.0208 0.10417,0.0417 0.0625,0 0.10416,0.0208 0.0208,0.0208 0.0625,0.0208 0.0417,0 0.0625,0.0208 1.75,0.5625 2.83334,1.16667 1.10417,0.58333 1.875,1.875 0.79167,1.29167 0.79167,3.52084 0,1.95833 -0.79167,3.39583 -0.79167,1.41667 -2.27084,2.1875 -1.45833,0.75 -3.47916,0.75 z m 16.04166,0 q -2.08333,0 -3.5625,-0.83333 -1.45833,-0.85417 -2.25,-2.45833 -0.77084,-1.60417 -0.77084,-3.87501 v -7.5625 q 0,-2.39584 0.75001,-4.10417 0.77083,-1.70834 2.20833,-2.58334 1.4375,-0.89583 3.45834,-0.89583 2.04166,0 3.5,0.83333 1.45833,0.8125 2.20833,2.39584 0.77084,1.5625 0.77084,3.79167 v 5.70833 h -10.12501 v -3.27083 h 6.33334 v -2.35417 q 0,-1.6875 -0.70834,-2.60417 -0.6875,-0.91667 -1.97916,-0.91667 -1.25,0 -1.93751,0.97917 -0.6875,0.97917 -0.6875,2.79167 v 7.89584 q 0,1.58333 0.72917,2.47917 0.72917,0.875 2.0625,0.875 1.22917,0 1.89584,-0.64584 0.6875,-0.66666 0.6875,-1.875 v -0.14583 h 3.79167 v 0.14583 q 0,2.97917 -1.66667,4.60417 -1.66667,1.625 -4.70834,1.625 z"
           id="path8"
           style="fill:#0085cc;fill-opacity:1" />
      </g>
    </g>
  </g>
  <text
     xml:space="preserve"
     style="font-style:normal;font-variant:normal;font-weight:normal;font-stretch:condensed;font-size:42.6667px;font-family:Bahnschrift;-inkscape-font-specification:'Bahnschrift Condensed';text-align:start;writing-mode:lr-tb;direction:ltr;text-anchor:start;opacity:1;fill:#e3f3f8;fill-opacity:0.305882"
     x="43.061375"
     y="117.89169"
     id="text11"><tspan
       sodipodi:role="line"
       id="tspan11"
       x="43.061375"
       y="117.89169" /></text>
</svg>
